<svg width="21" height="21" viewBox="0 0 21 21" fill="none" xmlns="http://www.w3.org/2000/svg">
<path d="M9.74545 16.8763C9.59267 16.7235 9.51267 16.5291 9.50545 16.293C9.49822 16.0569 9.57128 15.8624 9.72461 15.7096L13.8079 11.6263H4.49545C4.25933 11.6263 4.06128 11.5463 3.90128 11.3863C3.74128 11.2263 3.66156 11.0285 3.66211 10.793C3.66211 10.5569 3.74211 10.3588 3.90211 10.1988C4.06211 10.0388 4.25989 9.95908 4.49545 9.95964H13.8079L9.72461 5.8763C9.57183 5.72352 9.49878 5.52908 9.50545 5.29297C9.51211 5.05686 9.59211 4.86241 9.74545 4.70964C9.89822 4.55686 10.0927 4.48047 10.3288 4.48047C10.5649 4.48047 10.7593 4.55686 10.9121 4.70964L16.4121 10.2096C16.4954 10.2791 16.5546 10.366 16.5896 10.4705C16.6246 10.5749 16.6418 10.6824 16.6413 10.793C16.6413 10.9041 16.6241 11.0082 16.5896 11.1055C16.5552 11.2027 16.496 11.293 16.4121 11.3763L10.9121 16.8763C10.7593 17.0291 10.5649 17.1055 10.3288 17.1055C10.0927 17.1055 9.89822 17.0291 9.74545 16.8763Z" fill="white"/>
</svg>
