<svg width="218" height="40" viewBox="0 0 218 40" fill="none" xmlns="http://www.w3.org/2000/svg">
<path fill-rule="evenodd" clip-rule="evenodd" d="M36.6667 0V6.95513C38.6058 7.64423 40 9.49038 40 11.6635C40 14.4263 37.7596 16.6667 35 16.6667C32.2404 16.6667 30 14.4263 30 11.6635C30 9.49038 31.3942 7.64423 33.3333 6.95513V0H36.6667ZM36.5385 12.3013C36.625 12.0962 36.6667 11.8846 36.6667 11.6635C36.6667 11.4423 36.625 11.2308 36.5385 11.0256C36.4552 10.8205 36.3334 10.641 36.1795 10.484C36.0225 10.3301 35.843 10.2083 35.6379 10.125C35.4327 10.0385 35.2212 9.99679 35 9.99679C34.7789 9.99679 34.5674 10.0385 34.3622 10.125C34.1571 10.2083 33.9776 10.3301 33.8206 10.484C33.6667 10.641 33.5449 10.8205 33.4616 11.0256C33.375 11.2308 33.3334 11.4423 33.3334 11.6635C33.3334 11.8846 33.375 12.0962 33.4616 12.3013C33.5449 12.5064 33.6667 12.6859 33.8206 12.8429C33.9776 13 34.1571 13.1186 34.3622 13.2019C34.5674 13.2885 34.7789 13.3301 35 13.3301C35.2212 13.3301 35.4327 13.2885 35.6379 13.2019C35.843 13.1186 36.0225 13 36.1795 12.8429C36.3334 12.6859 36.4552 12.5064 36.5385 12.3013Z" fill="url(#paint0_linear_286_71)"/>
<path fill-rule="evenodd" clip-rule="evenodd" d="M25 0C22.2404 0 20 2.24038 20 5C20 5.76923 20.1795 6.49679 20.4904 7.15064L13.3333 14.3077V24.3109L7.15064 30.4904C6.5 30.1795 5.77244 30 5 30C2.24038 30 0 32.2404 0 35C0 37.7596 2.24038 40 5 40C7.75962 40 10 37.7596 10 35C10 34.2276 9.82051 33.5 9.50641 32.8493L16.6667 25.6891V15.6891L22.8494 9.50641C23.5 9.82051 24.2308 10 25 10C27.7596 10 30 7.75961 30 5C30 2.24038 27.7596 0 25 0ZM6.66672 35C6.66672 35.2211 6.62505 35.4327 6.53851 35.6378C6.45518 35.8397 6.33338 36.0224 6.17954 36.1763C6.02249 36.3333 5.843 36.4551 5.63787 36.5385C5.43274 36.625 5.2212 36.6667 5.00005 36.6667C4.7789 36.6667 4.56736 36.625 4.36223 36.5385C4.1571 36.4551 3.97761 36.3333 3.82056 36.1763C3.66351 36.0224 3.54492 35.8397 3.45838 35.6378C3.37505 35.4327 3.33338 35.2211 3.33338 35C3.33338 34.7788 3.37505 34.5673 3.45838 34.3622C3.54492 34.157 3.66351 33.9776 3.82056 33.8205C3.97761 33.6635 4.1571 33.5449 4.36223 33.4583C4.56736 33.375 4.7789 33.3333 5.00005 33.3333C5.2212 33.3333 5.43274 33.375 5.63787 33.4583C5.843 33.5449 6.02249 33.6635 6.17954 33.8205C6.33338 33.9776 6.45518 34.157 6.53851 34.3622C6.62505 34.5673 6.66672 34.7788 6.66672 35ZM26.5385 5.63782C26.625 5.43269 26.6667 5.22115 26.6667 5C26.6667 4.77885 26.625 4.5641 26.5385 4.36218C26.4552 4.15705 26.3334 3.97757 26.1795 3.82051C26.0225 3.66346 25.843 3.54487 25.6379 3.45834C25.4327 3.375 25.2212 3.33334 25 3.33334C24.7789 3.33334 24.5674 3.375 24.3622 3.45834C24.1571 3.54487 23.9776 3.66346 23.8206 3.82051C23.6667 3.97757 23.5449 4.15705 23.4616 4.36218C23.3751 4.5641 23.3334 4.77885 23.3334 5C23.3334 5.22115 23.3751 5.43269 23.4616 5.63782C23.5449 5.83975 23.6667 6.02244 23.8206 6.17628C23.9776 6.33333 24.1571 6.45513 24.3622 6.53846C24.5674 6.6218 24.7789 6.66667 25 6.66667C25.2212 6.66667 25.4327 6.6218 25.6379 6.53846C25.843 6.45513 26.0225 6.33333 26.1795 6.17628C26.3334 6.02244 26.4552 5.83975 26.5385 5.63782Z" fill="url(#paint1_linear_286_71)"/>
<path fill-rule="evenodd" clip-rule="evenodd" d="M11.6667 0C8.90705 0 6.66667 2.24038 6.66667 5C6.66667 5.76923 6.84615 6.49679 7.15705 7.15064L3.33333 10.9744V16.9551C1.39423 17.6442 0 19.4904 0 21.6635C0 24.4295 2.24038 26.6667 5 26.6667C7.75962 26.6667 10 24.4295 10 21.6635C10 19.4904 8.60577 17.6442 6.66667 16.9551V12.3558L9.51603 9.50641C10.1667 9.82051 10.8942 10 11.6667 10C14.4263 10 16.6667 7.75961 16.6667 5C16.6667 2.24038 14.4263 0 11.6667 0ZM13.3333 5C13.3333 5.22115 13.2917 5.43269 13.2051 5.63782C13.1218 5.83975 13 6.02244 12.8429 6.17628C12.6891 6.33333 12.5064 6.45513 12.3045 6.53846C12.0994 6.6218 11.8878 6.66667 11.6667 6.66667C11.4455 6.66667 11.234 6.6218 11.0288 6.53846C10.8237 6.45513 10.6442 6.33333 10.4872 6.17628C10.3301 6.02244 10.2115 5.83975 10.125 5.63782C10.0417 5.43269 10 5.22115 10 5C10 4.77885 10.0417 4.5641 10.125 4.36218C10.2115 4.15705 10.3301 3.97757 10.4872 3.82051C10.6442 3.66346 10.8237 3.54487 11.0288 3.45834C11.234 3.375 11.4455 3.33334 11.6667 3.33334C11.8878 3.33334 12.0994 3.375 12.3045 3.45834C12.5064 3.54487 12.6891 3.66346 12.8429 3.82051C13 3.97757 13.1218 4.15705 13.2051 4.36218C13.2917 4.5641 13.3333 4.77885 13.3333 5ZM5.00005 23.3333C5.92313 23.3333 6.66672 22.5865 6.66672 21.6635C6.66672 20.7436 5.91992 19.9968 5.00005 19.9968C4.08018 19.9968 3.33338 20.7436 3.33338 21.6635C3.33338 22.5865 4.08018 23.3333 5.00005 23.3333Z" fill="url(#paint2_linear_286_71)"/>
<path fill-rule="evenodd" clip-rule="evenodd" d="M30.0001 18.3333C30.0001 15.5673 27.7597 13.3333 25.0001 13.3333C22.2404 13.3333 20.0001 15.5673 20.0001 18.3333C20.0001 20.5064 21.3943 22.3526 23.3334 23.0417V27.641L20.484 30.4904C19.8334 30.1795 19.1026 30 18.3334 30C15.5706 30 13.3334 32.234 13.3334 35C13.3334 37.7596 15.5706 40 18.3334 40C21.093 40 23.3334 37.7596 23.3334 35C23.3334 34.2276 23.1539 33.5 22.843 32.8461L26.6667 29.0224V23.0417C28.6058 22.3558 30.0001 20.5064 30.0001 18.3333ZM16.6666 35C16.6666 34.0769 17.4134 33.3333 18.3333 33.3333C19.2532 33.3333 20 34.0769 20 35C20 35.9199 19.2532 36.6667 18.3333 36.6667C17.4134 36.6667 16.6666 35.9167 16.6666 35ZM26.5385 18.9711C26.6251 18.766 26.6667 18.5513 26.6667 18.3333C26.6667 18.1122 26.6251 17.8974 26.5385 17.6955C26.4552 17.4904 26.3334 17.3109 26.1795 17.1538C26.0225 16.9968 25.843 16.8782 25.6379 16.7917C25.4327 16.7083 25.2212 16.6667 25.0001 16.6667C24.7789 16.6667 24.5674 16.7083 24.3622 16.7917C24.1571 16.8782 23.9776 16.9968 23.8206 17.1538C23.6667 17.3109 23.5449 17.4904 23.4616 17.6955C23.3751 17.8974 23.3334 18.1122 23.3334 18.3333C23.3334 18.5513 23.3751 18.766 23.4616 18.9711C23.5449 19.1731 23.6667 19.3526 23.8206 19.5096C23.9776 19.6667 24.1571 19.7885 24.3622 19.8718C24.5674 19.9551 24.7789 19.9968 25.0001 19.9968C25.2212 19.9968 25.4327 19.9551 25.6379 19.8718C25.843 19.7885 26.0225 19.6667 26.1795 19.5096C26.3334 19.3526 26.4552 19.1731 26.5385 18.9711Z" fill="url(#paint3_linear_286_71)"/>
<path fill-rule="evenodd" clip-rule="evenodd" d="M35 19.9968C37.7596 19.9968 40 22.2372 40 25C40 27.1731 38.6058 29.0224 36.6667 29.7083V40H33.3333V29.7083C31.3942 29.0192 30 27.1731 30 25C30 22.2372 32.2404 19.9968 35 19.9968ZM36.5385 25.6378C36.625 25.4327 36.6667 25.2211 36.6667 25C36.6667 24.7788 36.625 24.5673 36.5385 24.3622C36.4552 24.157 36.3334 23.9776 36.1795 23.8205C36.0225 23.6635 35.843 23.5449 35.6379 23.4583C35.4327 23.375 35.2212 23.3333 35 23.3333C34.7789 23.3333 34.5674 23.375 34.3622 23.4583C34.1571 23.5449 33.9776 23.6635 33.8206 23.8205C33.6667 23.9776 33.5449 24.157 33.4616 24.3622C33.375 24.5673 33.3334 24.7788 33.3334 25C33.3334 25.2211 33.375 25.4327 33.4616 25.6378C33.5449 25.8397 33.6667 26.0224 33.8206 26.1763C33.9776 26.3333 34.1571 26.4551 34.3622 26.5385C34.5674 26.625 34.7789 26.6667 35 26.6667C35.2212 26.6667 35.4327 26.625 35.6379 26.5385C35.843 26.4551 36.0225 26.3333 36.1795 26.1763C36.3334 26.0224 36.4552 25.8397 36.5385 25.6378Z" fill="url(#paint4_linear_286_71)"/>
<path d="M49.44 35V13.8373H54.304L54.816 17.8053C55.584 16.44 56.6222 15.3591 57.9307 14.5627C59.2676 13.7378 60.832 13.3253 62.624 13.3253V19.0853H61.088C59.8933 19.0853 58.8267 19.2702 57.888 19.64C56.9493 20.0098 56.2098 20.6498 55.6693 21.56C55.1573 22.4702 54.9013 23.736 54.9013 25.3573V35H49.44Z" fill="white"/>
<path d="M76.1363 35.512C74.0883 35.512 72.2394 35.0427 70.5897 34.104C68.9683 33.1653 67.6741 31.8711 66.707 30.2213C65.7683 28.5431 65.299 26.6089 65.299 24.4187C65.299 22.2284 65.7826 20.3084 66.7497 18.6587C67.7168 16.9804 69.011 15.672 70.6323 14.7333C72.2821 13.7947 74.131 13.3253 76.179 13.3253C78.1986 13.3253 80.019 13.7947 81.6403 14.7333C83.2901 15.672 84.5843 16.9804 85.523 18.6587C86.4901 20.3084 86.9737 22.2284 86.9737 24.4187C86.9737 26.6089 86.4901 28.5431 85.523 30.2213C84.5843 31.8711 83.2901 33.1653 81.6403 34.104C79.9906 35.0427 78.1559 35.512 76.1363 35.512ZM76.1363 30.776C77.5586 30.776 78.7959 30.2498 79.8483 29.1973C80.9008 28.1164 81.427 26.5236 81.427 24.4187C81.427 22.3138 80.9008 20.7351 79.8483 19.6827C78.7959 18.6018 77.5728 18.0613 76.179 18.0613C74.7283 18.0613 73.4768 18.6018 72.4243 19.6827C71.4003 20.7351 70.8883 22.3138 70.8883 24.4187C70.8883 26.5236 71.4003 28.1164 72.4243 29.1973C73.4768 30.2498 74.7141 30.776 76.1363 30.776Z" fill="white"/>
<path d="M104.401 35.512C102.808 35.512 101.414 35.2133 100.219 34.616C99.0247 34.0187 98.0576 33.1796 97.318 32.0987L96.7207 35H91.8567V4.28H97.318V16.8667C98.0007 15.928 98.8967 15.1031 100.006 14.392C101.144 13.6809 102.609 13.3253 104.401 13.3253C106.392 13.3253 108.17 13.8089 109.734 14.776C111.298 15.7431 112.536 17.0658 113.446 18.744C114.356 20.4222 114.811 22.328 114.811 24.4613C114.811 26.5947 114.356 28.5004 113.446 30.1787C112.536 31.8284 111.298 33.1369 109.734 34.104C108.17 35.0427 106.392 35.512 104.401 35.512ZM103.249 30.7333C104.984 30.7333 106.42 30.1502 107.558 28.984C108.696 27.8178 109.265 26.3102 109.265 24.4613C109.265 22.6124 108.696 21.0907 107.558 19.896C106.42 18.7013 104.984 18.104 103.249 18.104C101.485 18.104 100.034 18.7013 98.8967 19.896C97.7873 21.0622 97.2327 22.5698 97.2327 24.4187C97.2327 26.2676 97.7873 27.7893 98.8967 28.984C100.034 30.1502 101.485 30.7333 103.249 30.7333Z" fill="white"/>
<path d="M129.845 35.512C127.797 35.512 125.948 35.0427 124.298 34.104C122.677 33.1653 121.382 31.8711 120.415 30.2213C119.477 28.5431 119.007 26.6089 119.007 24.4187C119.007 22.2284 119.491 20.3084 120.458 18.6587C121.425 16.9804 122.719 15.672 124.341 14.7333C125.99 13.7947 127.839 13.3253 129.887 13.3253C131.907 13.3253 133.727 13.7947 135.349 14.7333C136.998 15.672 138.293 16.9804 139.231 18.6587C140.198 20.3084 140.682 22.2284 140.682 24.4187C140.682 26.6089 140.198 28.5431 139.231 30.2213C138.293 31.8711 136.998 33.1653 135.349 34.104C133.699 35.0427 131.864 35.512 129.845 35.512ZM129.845 30.776C131.267 30.776 132.504 30.2498 133.557 29.1973C134.609 28.1164 135.135 26.5236 135.135 24.4187C135.135 22.3138 134.609 20.7351 133.557 19.6827C132.504 18.6018 131.281 18.0613 129.887 18.0613C128.437 18.0613 127.185 18.6018 126.133 19.6827C125.109 20.7351 124.597 22.3138 124.597 24.4187C124.597 26.5236 125.109 28.1164 126.133 29.1973C127.185 30.2498 128.422 30.776 129.845 30.776Z" fill="white"/>
<path d="M154.161 35C151.942 35 150.165 34.4596 148.828 33.3787C147.491 32.2978 146.822 30.3778 146.822 27.6187V18.4027H143.196V13.8373H146.822L147.462 8.16267H152.284V13.8373H158.001V18.4027H152.284V27.6613C152.284 28.6853 152.497 29.3964 152.924 29.7947C153.379 30.1644 154.147 30.3493 155.228 30.3493H157.873V35H154.161Z" fill="white"/>
<path d="M165.634 10.552C164.638 10.552 163.814 10.2533 163.159 9.656C162.534 9.05867 162.221 8.30489 162.221 7.39467C162.221 6.48444 162.534 5.74489 163.159 5.176C163.814 4.57867 164.638 4.28 165.634 4.28C166.63 4.28 167.44 4.57867 168.066 5.176C168.72 5.74489 169.047 6.48444 169.047 7.39467C169.047 8.30489 168.72 9.05867 168.066 9.656C167.44 10.2533 166.63 10.552 165.634 10.552ZM162.903 35V13.8373H168.365V35H162.903Z" fill="white"/>
<path d="M174.065 35V4.28H179.526V22.4133L187.036 13.8373H193.521L184.86 23.48L194.929 35H188.102L179.526 24.376V35H174.065Z" fill="white"/>
<path d="M206.72 35.512C204.672 35.512 202.823 35.0427 201.173 34.104C199.552 33.1653 198.257 31.8711 197.29 30.2213C196.352 28.5431 195.882 26.6089 195.882 24.4187C195.882 22.2284 196.366 20.3084 197.333 18.6587C198.3 16.9804 199.594 15.672 201.216 14.7333C202.865 13.7947 204.714 13.3253 206.762 13.3253C208.782 13.3253 210.602 13.7947 212.224 14.7333C213.873 15.672 215.168 16.9804 216.106 18.6587C217.073 20.3084 217.557 22.2284 217.557 24.4187C217.557 26.6089 217.073 28.5431 216.106 30.2213C215.168 31.8711 213.873 33.1653 212.224 34.104C210.574 35.0427 208.739 35.512 206.72 35.512ZM206.72 30.776C208.142 30.776 209.379 30.2498 210.432 29.1973C211.484 28.1164 212.01 26.5236 212.01 24.4187C212.01 22.3138 211.484 20.7351 210.432 19.6827C209.379 18.6018 208.156 18.0613 206.762 18.0613C205.312 18.0613 204.06 18.6018 203.008 19.6827C201.984 20.7351 201.472 22.3138 201.472 24.4187C201.472 26.5236 201.984 28.1164 203.008 29.1973C204.06 30.2498 205.297 30.776 206.72 30.776Z" fill="white"/>
<defs>
<linearGradient id="paint0_linear_286_71" x1="-11.7146" y1="5.53846" x2="8.27767" y2="102.579" gradientUnits="userSpaceOnUse">
<stop stop-color="#A6EFFF"/>
<stop offset="0.519287" stop-color="#7C8DE6"/>
<stop offset="1" stop-color="#FFC9FD"/>
</linearGradient>
<linearGradient id="paint1_linear_286_71" x1="-11.7146" y1="5.53846" x2="8.27767" y2="102.579" gradientUnits="userSpaceOnUse">
<stop stop-color="#A6EFFF"/>
<stop offset="0.519287" stop-color="#7C8DE6"/>
<stop offset="1" stop-color="#FFC9FD"/>
</linearGradient>
<linearGradient id="paint2_linear_286_71" x1="-11.7146" y1="5.53846" x2="8.27767" y2="102.579" gradientUnits="userSpaceOnUse">
<stop stop-color="#A6EFFF"/>
<stop offset="0.519287" stop-color="#7C8DE6"/>
<stop offset="1" stop-color="#FFC9FD"/>
</linearGradient>
<linearGradient id="paint3_linear_286_71" x1="-11.7146" y1="5.53846" x2="8.27767" y2="102.579" gradientUnits="userSpaceOnUse">
<stop stop-color="#A6EFFF"/>
<stop offset="0.519287" stop-color="#7C8DE6"/>
<stop offset="1" stop-color="#FFC9FD"/>
</linearGradient>
<linearGradient id="paint4_linear_286_71" x1="-11.7146" y1="5.53846" x2="8.27767" y2="102.579" gradientUnits="userSpaceOnUse">
<stop stop-color="#A6EFFF"/>
<stop offset="0.519287" stop-color="#7C8DE6"/>
<stop offset="1" stop-color="#FFC9FD"/>
</linearGradient>
</defs>
</svg>
